<?xml version="1.0" encoding="utf-8"?>
<!-- Generator: Adobe Illustrator 24.3.0, SVG Export Plug-In . SVG Version: 6.00 Build 0)  -->
<svg version="1.1" id="Layer_1" xmlns="http://www.w3.org/2000/svg" xmlns:xlink="http://www.w3.org/1999/xlink" x="0px" y="0px"
	 viewBox="0 0 28.35 28.35" style="enable-background:new 0 0 28.35 28.35;" xml:space="preserve">
<style type="text/css">
	.st0{fill:#FFFFFF;}
</style>
<g>
	<path class="st0" d="M21.45,18.31c-0.06,0.73-0.15,1.48-0.51,2.15c-0.82,1.57-2.08,2.51-3.9,2.53c-2.27,0.02-4.54,0.02-6.82,0
		c-0.92-0.01-1.8-0.23-2.55-0.81c-1.02-0.78-1.62-1.82-1.83-3.07c-0.08-0.46-0.1-0.94-0.1-1.41c-0.01-3.8,0-7.6,0-11.4
		c0-0.39,0.05-0.44,0.43-0.44c4.95,0,9.89,0,14.84,0c0.39,0,0.46,0.07,0.46,0.48c0,0.77,0,1.54,0,2.31c0.85,0.07,1.62,0.3,2.3,0.81
		c0.85,0.63,1.37,1.49,1.61,2.52c0.32,1.38,0.28,2.73-0.31,4.04c-0.54,1.21-1.52,1.87-2.77,2.18
		C22.02,18.24,21.74,18.26,21.45,18.31z M6.28,6.44c0,0.07,0,0.12,0,0.17c0,3.87-0.01,7.73,0,11.6c0,0.67,0.14,1.33,0.44,1.93
		c0.68,1.36,1.79,2.19,3.3,2.25c2.3,0.09,4.61,0.07,6.91,0.06c0.74,0,1.44-0.21,2.07-0.63c1.31-0.88,1.86-2.17,1.87-3.68
		c0.04-3.82,0.01-7.63,0.01-11.45c0-0.08,0-0.16,0-0.25C16.02,6.44,11.16,6.44,6.28,6.44z M21.48,9.97
		c0.16,0.03,0.31,0.04,0.45,0.08c0.77,0.18,1.28,0.7,1.61,1.39c0.57,1.18,0.59,2.4,0.17,3.63c-0.27,0.8-0.83,1.35-1.61,1.67
		c-0.2,0.08-0.41,0.13-0.61,0.19c0,0.28,0,0.54,0,0.81c0.12-0.02,0.22-0.04,0.31-0.05c1.39-0.14,2.56-1.11,2.97-2.47
		c0.27-0.91,0.31-1.83,0.14-2.75c-0.15-0.8-0.42-1.56-0.99-2.16c-0.66-0.69-1.48-1.03-2.44-1.09C21.48,9.48,21.48,9.72,21.48,9.97z
		 M21.48,16.33c0.61-0.07,1.04-0.39,1.36-0.85c0.49-0.68,0.65-1.46,0.62-2.29c-0.02-0.76-0.2-1.47-0.72-2.05
		c-0.33-0.37-0.75-0.57-1.27-0.58C21.48,12.49,21.48,14.4,21.48,16.33z"/>
	<path class="st0" d="M10.62,17.41c-0.18,0.55-0.35,1.06-0.52,1.56c-0.05,0.14-0.12,0.2-0.28,0.2c-0.58-0.01-0.58,0-0.77-0.55
		c-0.13-0.38-0.26-0.77-0.38-1.15c0,0-0.02,0-0.01,0c0,0.56,0,1.12,0,1.69c-0.44,0-0.89,0-1.35,0c0-1.48,0-2.96,0-4.45
		c0.59,0,1.18,0,1.79,0c0.16,0.5,0.33,1.01,0.51,1.59c0.2-0.57,0.38-1.08,0.56-1.59c0.6,0,1.19,0,1.8,0c0,1.48,0,2.95,0,4.44
		c-0.45,0-0.89,0-1.35,0C10.62,18.59,10.62,18.02,10.62,17.41z"/>
	<path class="st0" d="M14.85,12.02c0.38,0.62,0.74,1.21,1.13,1.83c-0.57,0-1.09,0-1.61-0.01c-0.05,0-0.12-0.09-0.15-0.16
		c-0.22-0.42-0.43-0.84-0.65-1.29c0,0.5,0,0.95,0,1.43c-0.46,0-0.94,0-1.43,0c0-1.47,0-2.95,0-4.44c0.07,0,0.14-0.01,0.21-0.01
		c0.8,0,1.6,0,2.4,0c0.54,0,0.84,0.22,1.01,0.74c0.14,0.41,0.11,0.82-0.03,1.22C15.59,11.73,15.31,11.97,14.85,12.02z M13.59,11.5
		c0.26-0.04,0.54,0.08,0.69-0.18c0.11-0.18,0.12-0.42-0.03-0.58c-0.18-0.19-0.43-0.11-0.67-0.11C13.59,10.93,13.59,11.2,13.59,11.5z
		"/>
	<path class="st0" d="M12.52,14.69c0.47,0,0.94,0,1.43,0c0.01,0.12,0.02,0.24,0.02,0.36c0.01,0.79,0,1.59,0.03,2.38
		c0,0.11,0.11,0.25,0.2,0.31c0.08,0.04,0.27,0,0.32-0.07c0.07-0.11,0.1-0.27,0.1-0.42c0.01-0.76,0-1.52,0-2.28c0-0.09,0-0.18,0-0.28
		c0.5,0,0.98,0,1.47,0c0.01,0.04,0.02,0.08,0.02,0.12c0,1.01,0.02,2.01-0.01,3.02c-0.04,1-0.53,1.4-1.52,1.46
		c-0.4,0.02-0.81-0.04-1.2-0.14c-0.52-0.13-0.82-0.54-0.84-1.06c-0.04-1.11-0.02-2.22-0.03-3.34C12.49,14.75,12.5,14.73,12.52,14.69
		z"/>
	<path class="st0" d="M8.54,9.38c0.71,0,1.4,0,2.08,0.01c0.06,0,0.15,0.07,0.16,0.12c0.33,1.4,0.66,2.81,0.98,4.21
		c0.01,0.04,0,0.08,0,0.13c-0.5,0-0.99,0-1.5,0c-0.04-0.16-0.09-0.32-0.11-0.48c-0.02-0.16-0.07-0.21-0.23-0.2
		c-0.24,0.01-0.49,0-0.75,0c-0.04,0.17-0.06,0.34-0.11,0.5c-0.02,0.07-0.09,0.18-0.14,0.18c-0.46,0.01-0.91,0.01-1.4,0.01
		C7.87,12.35,8.2,10.87,8.54,9.38z M9.92,11.88c-0.1-0.39-0.18-0.76-0.29-1.2c-0.1,0.44-0.18,0.81-0.27,1.2
		C9.55,11.88,9.72,11.88,9.92,11.88z"/>
	<path class="st0" d="M18.55,16.92c0.44,0,0.85,0,1.26,0.01c0.04,0,0.1,0.1,0.1,0.15c0.01,0.55,0.01,1.1,0,1.64
		c0,0.06-0.06,0.15-0.12,0.18c-0.69,0.36-1.42,0.47-2.17,0.24c-0.59-0.18-0.91-0.63-1.06-1.21c-0.2-0.77-0.21-1.55,0.02-2.31
		c0.22-0.72,0.71-1.05,1.51-1.13c0.55-0.05,1.08,0.06,1.6,0.25c0.07,0.03,0.16,0.1,0.16,0.16c0.01,0.45,0.01,0.9,0.01,1.33
		c-0.4-0.04-0.79-0.1-1.17-0.12c-0.45-0.02-0.66,0.12-0.71,0.55c-0.04,0.35-0.01,0.71,0.04,1.07c0.01,0.11,0.15,0.25,0.26,0.28
		c0.33,0.1,0.44-0.03,0.38-0.37C18.62,17.42,18.59,17.2,18.55,16.92z"/>
	<path class="st0" d="M18.54,13.85c-0.52,0-1,0-1.52,0c0-0.97,0-1.94,0-2.93c-0.32,0-0.61,0-0.92,0c0-0.53,0-1.04,0-1.57
		c0.07-0.01,0.13-0.02,0.19-0.02c0.99,0,1.98,0,2.97,0c0.2,0,0.27,0.06,0.26,0.26c-0.01,0.42,0,0.85,0,1.31c-0.32,0-0.64,0-0.98,0
		C18.54,11.9,18.54,12.86,18.54,13.85z"/>
</g>
</svg>
