<?xml version="1.0" encoding="utf-8"?>
<!-- Generator: Adobe Illustrator 24.3.0, SVG Export Plug-In . SVG Version: 6.00 Build 0)  -->
<svg version="1.1" id="Layer_1" xmlns="http://www.w3.org/2000/svg" xmlns:xlink="http://www.w3.org/1999/xlink" x="0px" y="0px"
	 viewBox="0 0 28.35 28.35" style="enable-background:new 0 0 28.35 28.35;" xml:space="preserve">
<style type="text/css">
	.st0{fill:#FFFFFF;}
</style>
<g>
	<path class="st0" d="M7.8,13.74c-1.29-1.88-0.82-3.9,0.28-5.11c0.69-0.76,1.54-1.22,2.57-1.33c1.01-0.11,1.93,0.11,2.71,0.62
		c0.32-0.61,0.55-1.25,0.96-1.76c1.06-1.32,2.46-1.85,4.13-1.46c1.74,0.41,2.76,1.55,3.1,3.3c0.05,0.28,0.06,0.57,0.06,0.85
		c0,4.03,0,8.06,0,12.09c0,0.64-0.3,0.94-0.93,0.94c-4.11,0-8.22,0-12.34,0c-1.98,0-3.7-1.49-3.98-3.38
		c-0.33-2.24,1.12-4.13,2.95-4.62C7.47,13.84,7.61,13.79,7.8,13.74z M11.79,14.79c0,0.25-0.02,0.5,0,0.75
		c0.05,0.6,0.56,1.07,1.14,1.05c0.95-0.02,1.32-0.86,1.11-1.71c-0.03-0.14-0.31-0.28-0.43-0.3c-0.21-0.03-0.37-0.01-0.54-0.17
		c-0.04-0.04-0.07-0.08-0.09-0.14c-0.02-0.07,0-0.15,0.04-0.22c0.07-0.12,0.14-0.24,0.28-0.28c0.13-0.04,0.53,0.03,0.57-0.15
		c0.02-0.1-0.04-0.25-0.11-0.33c-0.3-0.35-0.71-0.43-1.14-0.32c-0.47,0.12-0.76,0.46-0.83,0.93C11.77,14.2,11.8,14.5,11.79,14.79z
		 M15.38,14.75c0,0.25-0.01,0.5,0,0.75c0.02,0.49,0.27,0.84,0.71,1.02c0.44,0.18,0.86,0.11,1.22-0.23c0.35-0.32,0.39-0.74,0.37-1.18
		c-0.01-0.15-0.05-0.31-0.17-0.41c-0.12-0.1-0.27-0.08-0.42-0.09c-0.15-0.01-0.3-0.06-0.42-0.16c-0.23-0.2-0.06-0.56,0.2-0.66
		c0.11-0.04,0.22-0.01,0.33-0.04c0.07-0.02,0.24-0.06,0.27-0.14c0.03-0.09-0.06-0.24-0.14-0.33c-0.33-0.34-0.73-0.43-1.17-0.28
		c-0.46,0.15-0.72,0.49-0.77,0.97C15.36,14.22,15.39,14.49,15.38,14.75z"/>
</g>
</svg>
