<?xml version="1.0" encoding="utf-8"?>
<!-- Generator: Adobe Illustrator 24.3.0, SVG Export Plug-In . SVG Version: 6.00 Build 0)  -->
<svg version="1.1" id="Layer_1" xmlns="http://www.w3.org/2000/svg" xmlns:xlink="http://www.w3.org/1999/xlink" x="0px" y="0px"
	 viewBox="0 0 28.35 28.35" style="enable-background:new 0 0 28.35 28.35;" xml:space="preserve">
<style type="text/css">
	.st0{fill:#FFFFFF;}
</style>
<g>
	<g>
		<path class="st0" d="M21.05,7.79c-1.3-0.61-2.67-1.04-4.09-1.28c-0.19,0.35-0.37,0.72-0.52,1.09c-1.52-0.23-3.03-0.23-4.53,0
			c-0.16-0.37-0.33-0.73-0.53-1.09C9.97,6.75,8.59,7.19,7.29,7.8c-2.59,3.91-3.29,7.72-2.94,11.47c1.71,1.28,3.38,2.06,5.01,2.57
			c0.41-0.56,0.76-1.15,1.07-1.77c-0.59-0.22-1.15-0.5-1.69-0.82c0.14-0.1,0.28-0.21,0.41-0.33c3.26,1.52,6.8,1.52,10.02,0
			c0.14,0.11,0.27,0.22,0.41,0.33c-0.54,0.32-1.11,0.6-1.69,0.82c0.31,0.62,0.67,1.21,1.07,1.77c1.64-0.51,3.3-1.29,5.01-2.57
			C24.4,14.91,23.29,11.14,21.05,7.79L21.05,7.79z M10.88,16.96c-0.98,0-1.78-0.91-1.78-2.03c0-1.11,0.79-2.03,1.78-2.03
			c1,0,1.8,0.91,1.78,2.03C12.67,16.05,11.88,16.96,10.88,16.96L10.88,16.96z M17.46,16.96c-0.98,0-1.78-0.91-1.78-2.03
			c0-1.11,0.79-2.03,1.78-2.03c1,0,1.8,0.91,1.78,2.03C19.24,16.05,18.46,16.96,17.46,16.96z"/>
	</g>
</g>
</svg>
