<?xml version="1.0" encoding="utf-8"?>
<!-- Generator: Adobe Illustrator 24.3.0, SVG Export Plug-In . SVG Version: 6.00 Build 0)  -->
<svg version="1.1" id="Layer_1" xmlns="http://www.w3.org/2000/svg" xmlns:xlink="http://www.w3.org/1999/xlink" x="0px" y="0px"
	 viewBox="0 0 28.35 28.35" style="enable-background:new 0 0 28.35 28.35;" xml:space="preserve">
<style type="text/css">
	.st0{fill:#FFFFFF;}
</style>
<g>
	<path class="st0" d="M8.69,20.56c-0.49-0.31-0.98-0.58-1.43-0.9c-1.39-1-2.46-2.26-3.03-3.89c-0.31-0.89-0.41-1.8-0.32-2.74
		c0.18-1.86,1.05-3.38,2.4-4.63c1.55-1.44,3.41-2.27,5.48-2.66c0.95-0.18,1.91-0.26,2.88-0.22c2.15,0.09,4.17,0.64,6,1.81
		c1.23,0.79,2.25,1.78,2.96,3.07c0.67,1.21,0.95,2.5,0.82,3.87c-0.15,1.54-0.8,2.87-1.81,4.01c-1.28,1.44-2.89,2.36-4.71,2.93
		c-1.23,0.39-2.5,0.57-3.8,0.55c-0.56-0.01-1.12-0.07-1.69-0.1c-0.07,0-0.15,0.03-0.2,0.07c-1.16,0.79-2.32,1.58-3.49,2.36
		c-0.22,0.15-0.46,0.27-0.69,0.4c-0.11,0.06-0.23,0.09-0.33,0c-0.1-0.09-0.07-0.21-0.04-0.32c0.33-1.19,0.67-2.39,1-3.58
		C8.69,20.57,8.69,20.56,8.69,20.56z M19.28,14.39c0.21,0.28,0.42,0.55,0.63,0.83c0.27,0.35,0.54,0.71,0.81,1.05
		c0.12,0.15,0.29,0.2,0.47,0.18c0.47-0.06,0.69-0.56,0.41-0.95c-0.2-0.28-0.42-0.56-0.63-0.84c-0.27-0.37-0.55-0.73-0.83-1.1
		c0.04-0.04,0.08-0.08,0.11-0.12c0.4-0.4,0.8-0.79,1.19-1.2c0.08-0.08,0.14-0.19,0.16-0.29c0.05-0.24-0.09-0.49-0.32-0.6
		c-0.22-0.11-0.44-0.07-0.63,0.12c-0.49,0.49-0.99,0.98-1.48,1.48c-0.03,0.03-0.07,0.07-0.13,0.12c0-0.43,0-0.81,0-1.2
		c0-0.11-0.01-0.22-0.06-0.32c-0.1-0.24-0.38-0.38-0.62-0.34c-0.3,0.06-0.5,0.28-0.51,0.59c-0.01,0.36,0,0.73,0,1.09
		c0,0.97,0,1.95,0,2.92c0,0.25,0.09,0.46,0.32,0.58c0.41,0.2,0.85-0.06,0.86-0.52c0.01-0.35,0.01-0.71,0-1.06
		C19.05,14.63,19.1,14.49,19.28,14.39z M11.09,15.44c0.58,0,1.16,0,1.74,0c0.04,0,0.09,0.05,0.1,0.08c0.09,0.22,0.16,0.44,0.26,0.65
		c0.05,0.1,0.14,0.2,0.24,0.24c0.25,0.11,0.51,0.08,0.72-0.08c0.2-0.16,0.16-0.4,0.11-0.63c0-0.01-0.01-0.03-0.01-0.04
		c-0.19-0.5-0.37-1-0.56-1.5c-0.3-0.79-0.6-1.59-0.91-2.38c-0.17-0.43-0.6-0.65-1.01-0.52c-0.3,0.09-0.47,0.31-0.58,0.59
		c-0.46,1.21-0.92,2.42-1.38,3.63c-0.05,0.14-0.09,0.28-0.1,0.43c-0.03,0.31,0.08,0.47,0.38,0.54c0.28,0.06,0.64,0.05,0.76-0.38
		C10.91,15.85,11,15.65,11.09,15.44z M7.87,12.39c0,0.08,0,0.13,0,0.19c0,1.06,0.01,2.11,0.01,3.17c0,0.08,0,0.16,0.01,0.24
		c0.04,0.32,0.45,0.54,0.76,0.43c0.3-0.11,0.42-0.32,0.42-0.63c0-1.07,0-2.15,0-3.22c0-0.06,0-0.11,0-0.18c0.27,0,0.53,0,0.79,0
		c0.09,0,0.17-0.01,0.26-0.03c0.29-0.06,0.46-0.28,0.45-0.56c-0.01-0.32-0.18-0.51-0.49-0.56c-0.07-0.01-0.13-0.01-0.2-0.01
		c-0.94,0-1.87,0-2.81,0c-0.07,0-0.13,0-0.2,0.01c-0.36,0.06-0.56,0.38-0.47,0.73c0.06,0.25,0.31,0.42,0.63,0.42
		C7.3,12.39,7.58,12.39,7.87,12.39z M15.81,15.3c0-0.08,0-0.13,0-0.19c0-1.09,0-2.18,0-3.27c0-0.35-0.26-0.61-0.6-0.62
		c-0.33-0.01-0.61,0.26-0.61,0.61c0,1.33,0,2.65,0,3.98c0,0.34,0.21,0.56,0.55,0.57c0.66,0.01,1.33,0.01,1.99,0
		c0.22,0,0.37-0.13,0.46-0.32c0.08-0.18,0.07-0.36-0.05-0.53c-0.13-0.18-0.31-0.24-0.52-0.24C16.63,15.3,16.23,15.3,15.81,15.3z"/>
	<path class="st0" d="M12.59,14.38c-0.4,0-0.78,0-1.18,0c0.19-0.55,0.38-1.09,0.57-1.63c0.01,0,0.02,0,0.03,0
		C12.2,13.28,12.39,13.82,12.59,14.38z"/>
</g>
</svg>
